<svg width="213" height="53" viewBox="0 0 213 53" fill="none" xmlns="http://www.w3.org/2000/svg">
<circle cx="26.1658" cy="26.1658" r="26.1658" fill="#FFECBB"/>
<path d="M22.6124 25.1889C23.6502 27.332 25.3831 29.0605 27.5288 30.0928C27.6871 30.1677 27.8621 30.2001 28.0368 30.1869C28.2114 30.1736 28.3795 30.1151 28.5247 30.0171L31.6762 27.9119C31.8155 27.8174 31.9764 27.7598 32.1439 27.7444C32.3114 27.729 32.4802 27.7562 32.6343 27.8236L38.534 30.3575C38.7356 30.4414 38.9041 30.5893 39.0134 30.7783C39.1228 30.9674 39.1669 31.1872 39.1391 31.4038C38.9521 32.8633 38.2397 34.2046 37.1353 35.1768C36.0308 36.149 34.61 36.6855 33.1386 36.6858C28.5916 36.6858 24.2308 34.8795 21.0156 31.6643C17.8004 28.4491 15.9941 24.0884 15.9941 19.5414C15.9945 18.07 16.5309 16.6491 17.5031 15.5447C18.4753 14.4402 19.8167 13.7278 21.2761 13.5408C21.4928 13.513 21.7125 13.5572 21.9016 13.6665C22.0906 13.7758 22.2385 13.9443 22.3224 14.1459L24.8563 20.0582C24.9222 20.2099 24.9497 20.3755 24.9366 20.5404C24.9234 20.7053 24.8698 20.8644 24.7807 21.0037L22.6754 24.2057C22.5817 24.3505 22.5267 24.5169 22.5156 24.6891C22.5046 24.8612 22.5379 25.0333 22.6124 25.1889V25.1889Z" stroke="#DEAA27" stroke-width="2" stroke-linecap="round" stroke-linejoin="round"/>
<path d="M71.8615 45.2523V42.5823H69.1715V40.8323H71.8615V38.1523H73.7415V40.8323H76.4315V42.5823H73.7415V45.2523H71.8615ZM79.6995 47.2723V36.5723C79.3595 36.819 79.0395 37.0123 78.7395 37.1523C78.4462 37.2923 78.1428 37.399 77.8295 37.4723L77.5695 35.4523C77.8828 35.3723 78.2195 35.219 78.5795 34.9923C78.9462 34.7657 79.2828 34.5023 79.5895 34.2023C79.8962 33.9023 80.1262 33.5923 80.2795 33.2723H81.9995V47.2723H79.6995ZM94.362 47.5523C93.3487 47.5523 92.4753 47.3723 91.742 47.0123C91.0153 46.6457 90.452 46.139 90.052 45.4923C89.6587 44.8457 89.462 44.1023 89.462 43.2623C89.462 42.409 89.6653 41.6623 90.072 41.0223C90.4853 40.3823 91.0587 39.8857 91.792 39.5323C92.532 39.1723 93.3887 38.9923 94.362 38.9923C95.3353 38.9923 96.1887 39.1723 96.922 39.5323C97.662 39.8857 98.2353 40.3823 98.642 41.0223C99.0553 41.6623 99.262 42.409 99.262 43.2623C99.262 44.1023 99.062 44.8457 98.662 45.4923C98.262 46.139 97.6953 46.6457 96.962 47.0123C96.2287 47.3723 95.362 47.5523 94.362 47.5523ZM94.362 45.5223C95.2153 45.5223 95.8753 45.3057 96.342 44.8723C96.8087 44.439 97.042 43.869 97.042 43.1623C97.042 42.4623 96.8053 41.8857 96.332 41.4323C95.8653 40.9723 95.2087 40.7423 94.362 40.7423C93.5153 40.7423 92.8553 40.9723 92.382 41.4323C91.9087 41.8857 91.672 42.4623 91.672 43.1623C91.672 43.869 91.9087 44.439 92.382 44.8723C92.8553 45.3057 93.5153 45.5223 94.362 45.5223ZM94.362 40.4523C93.5687 40.4523 92.852 40.2957 92.212 39.9823C91.572 39.669 91.0587 39.2357 90.672 38.6823C90.292 38.129 90.102 37.4923 90.102 36.7723C90.102 36.159 90.2453 35.5623 90.532 34.9823C90.8253 34.4023 91.282 33.9257 91.902 33.5523C92.5287 33.179 93.3487 32.9923 94.362 32.9923C95.3687 32.9923 96.1787 33.179 96.792 33.5523C97.4053 33.9257 97.8487 34.4023 98.122 34.9823C98.402 35.5623 98.542 36.159 98.542 36.7723C98.542 37.4923 98.3687 38.129 98.022 38.6823C97.682 39.2357 97.1987 39.669 96.572 39.9823C95.9453 40.2957 95.2087 40.4523 94.362 40.4523ZM94.362 38.7023C95.042 38.7023 95.5553 38.5157 95.902 38.1423C96.2487 37.7623 96.422 37.309 96.422 36.7823C96.422 36.2223 96.2487 35.769 95.902 35.4223C95.5553 35.069 95.042 34.8923 94.362 34.8923C93.6753 34.8923 93.1453 35.069 92.772 35.4223C92.4053 35.769 92.222 36.2223 92.222 36.7823C92.222 37.309 92.4053 37.7623 92.772 38.1423C93.1453 38.5157 93.6753 38.7023 94.362 38.7023ZM107.432 47.5523C106.232 47.5523 105.192 47.2423 104.312 46.6223C103.432 45.9957 102.749 45.129 102.262 44.0223C101.775 42.909 101.532 41.619 101.532 40.1523C101.532 38.7323 101.779 37.4857 102.272 36.4123C102.772 35.3323 103.462 34.4923 104.342 33.8923C105.229 33.2923 106.259 32.9923 107.432 32.9923C108.619 32.9923 109.652 33.2957 110.532 33.9023C111.419 34.5023 112.105 35.339 112.592 36.4123C113.085 37.4857 113.332 38.7323 113.332 40.1523C113.332 41.619 113.092 42.909 112.612 44.0223C112.132 45.129 111.449 45.9957 110.562 46.6223C109.682 47.2423 108.639 47.5523 107.432 47.5523ZM107.432 45.4623C108.139 45.4623 108.755 45.2723 109.282 44.8923C109.815 44.5123 110.229 43.929 110.522 43.1423C110.822 42.3557 110.972 41.359 110.972 40.1523C110.972 38.4323 110.639 37.1523 109.972 36.3123C109.312 35.4723 108.465 35.0523 107.432 35.0523C106.425 35.0523 105.582 35.4723 104.902 36.3123C104.229 37.1457 103.892 38.4257 103.892 40.1523C103.892 41.3523 104.042 42.3457 104.342 43.1323C104.642 43.919 105.055 44.5057 105.582 44.8923C106.115 45.2723 106.732 45.4623 107.432 45.4623ZM121.494 47.5523C120.294 47.5523 119.254 47.2423 118.374 46.6223C117.494 45.9957 116.811 45.129 116.324 44.0223C115.838 42.909 115.594 41.619 115.594 40.1523C115.594 38.7323 115.841 37.4857 116.334 36.4123C116.834 35.3323 117.524 34.4923 118.404 33.8923C119.291 33.2923 120.321 32.9923 121.494 32.9923C122.681 32.9923 123.714 33.2957 124.594 33.9023C125.481 34.5023 126.168 35.339 126.654 36.4123C127.148 37.4857 127.394 38.7323 127.394 40.1523C127.394 41.619 127.154 42.909 126.674 44.0223C126.194 45.129 125.511 45.9957 124.624 46.6223C123.744 47.2423 122.701 47.5523 121.494 47.5523ZM121.494 45.4623C122.201 45.4623 122.818 45.2723 123.344 44.8923C123.878 44.5123 124.291 43.929 124.584 43.1423C124.884 42.3557 125.034 41.359 125.034 40.1523C125.034 38.4323 124.701 37.1523 124.034 36.3123C123.374 35.4723 122.528 35.0523 121.494 35.0523C120.488 35.0523 119.644 35.4723 118.964 36.3123C118.291 37.1457 117.954 38.4257 117.954 40.1523C117.954 41.3523 118.104 42.3457 118.404 43.1323C118.704 43.919 119.118 44.5057 119.644 44.8923C120.178 45.2723 120.794 45.4623 121.494 45.4623ZM135.969 47.2723V36.5723C135.629 36.819 135.309 37.0123 135.009 37.1523C134.716 37.2923 134.412 37.399 134.099 37.4723L133.839 35.4523C134.152 35.3723 134.489 35.219 134.849 34.9923C135.216 34.7657 135.552 34.5023 135.859 34.2023C136.166 33.9023 136.396 33.5923 136.549 33.2723H138.269V47.2723H135.969ZM147.119 47.5523C145.919 47.5523 144.879 47.2423 143.999 46.6223C143.119 45.9957 142.436 45.129 141.949 44.0223C141.463 42.909 141.219 41.619 141.219 40.1523C141.219 38.7323 141.466 37.4857 141.959 36.4123C142.459 35.3323 143.149 34.4923 144.029 33.8923C144.916 33.2923 145.946 32.9923 147.119 32.9923C148.306 32.9923 149.339 33.2957 150.219 33.9023C151.106 34.5023 151.793 35.339 152.279 36.4123C152.773 37.4857 153.019 38.7323 153.019 40.1523C153.019 41.619 152.779 42.909 152.299 44.0223C151.819 45.129 151.136 45.9957 150.249 46.6223C149.369 47.2423 148.326 47.5523 147.119 47.5523ZM147.119 45.4623C147.826 45.4623 148.443 45.2723 148.969 44.8923C149.503 44.5123 149.916 43.929 150.209 43.1423C150.509 42.3557 150.659 41.359 150.659 40.1523C150.659 38.4323 150.326 37.1523 149.659 36.3123C148.999 35.4723 148.153 35.0523 147.119 35.0523C146.113 35.0523 145.269 35.4723 144.589 36.3123C143.916 37.1457 143.579 38.4257 143.579 40.1523C143.579 41.3523 143.729 42.3457 144.029 43.1323C144.329 43.919 144.743 44.5057 145.269 44.8923C145.803 45.2723 146.419 45.4623 147.119 45.4623ZM161.182 47.5523C159.982 47.5523 158.942 47.2423 158.062 46.6223C157.182 45.9957 156.499 45.129 156.012 44.0223C155.525 42.909 155.282 41.619 155.282 40.1523C155.282 38.7323 155.529 37.4857 156.022 36.4123C156.522 35.3323 157.212 34.4923 158.092 33.8923C158.979 33.2923 160.009 32.9923 161.182 32.9923C162.369 32.9923 163.402 33.2957 164.282 33.9023C165.169 34.5023 165.855 35.339 166.342 36.4123C166.835 37.4857 167.082 38.7323 167.082 40.1523C167.082 41.619 166.842 42.909 166.362 44.0223C165.882 45.129 165.199 45.9957 164.312 46.6223C163.432 47.2423 162.389 47.5523 161.182 47.5523ZM161.182 45.4623C161.889 45.4623 162.505 45.2723 163.032 44.8923C163.565 44.5123 163.979 43.929 164.272 43.1423C164.572 42.3557 164.722 41.359 164.722 40.1523C164.722 38.4323 164.389 37.1523 163.722 36.3123C163.062 35.4723 162.215 35.0523 161.182 35.0523C160.175 35.0523 159.332 35.4723 158.652 36.3123C157.979 37.1457 157.642 38.4257 157.642 40.1523C157.642 41.3523 157.792 42.3457 158.092 43.1323C158.392 43.919 158.805 44.5057 159.332 44.8923C159.865 45.2723 160.482 45.4623 161.182 45.4623ZM176.877 47.2723L175.277 45.9423C175.697 45.729 176.153 45.4557 176.647 45.1223C177.147 44.789 177.64 44.4023 178.127 43.9623C178.613 43.5157 179.057 43.0223 179.457 42.4823C179.863 41.9423 180.187 41.359 180.427 40.7323C180.673 40.1057 180.797 39.4457 180.797 38.7523L181.487 39.7023C181.153 40.2957 180.677 40.7757 180.057 41.1423C179.443 41.5023 178.677 41.6823 177.757 41.6823C176.963 41.6823 176.257 41.5023 175.637 41.1423C175.017 40.7757 174.527 40.2757 174.167 39.6423C173.807 39.0023 173.627 38.2757 173.627 37.4623C173.627 36.5823 173.817 35.8057 174.197 35.1323C174.577 34.459 175.11 33.9357 175.797 33.5623C176.49 33.1823 177.3 32.9923 178.227 32.9923C179.207 32.9923 180.053 33.209 180.767 33.6423C181.48 34.0757 182.03 34.6857 182.417 35.4723C182.81 36.2523 183.007 37.1623 183.007 38.2023C183.007 39.2823 182.82 40.2957 182.447 41.2423C182.073 42.189 181.583 43.0523 180.977 43.8323C180.377 44.6057 179.717 45.2857 178.997 45.8723C178.283 46.4523 177.577 46.919 176.877 47.2723ZM178.207 39.6923C178.907 39.6923 179.477 39.4723 179.917 39.0323C180.357 38.5857 180.577 38.029 180.577 37.3623C180.577 36.6823 180.357 36.119 179.917 35.6723C179.477 35.219 178.907 34.9923 178.207 34.9923C177.513 34.9923 176.947 35.2223 176.507 35.6823C176.067 36.1357 175.847 36.699 175.847 37.3723C175.847 38.0323 176.067 38.5857 176.507 39.0323C176.947 39.4723 177.513 39.6923 178.207 39.6923ZM191.026 47.5523C189.826 47.5523 188.786 47.2423 187.906 46.6223C187.026 45.9957 186.342 45.129 185.856 44.0223C185.369 42.909 185.126 41.619 185.126 40.1523C185.126 38.7323 185.372 37.4857 185.866 36.4123C186.366 35.3323 187.056 34.4923 187.936 33.8923C188.822 33.2923 189.852 32.9923 191.026 32.9923C192.212 32.9923 193.246 33.2957 194.126 33.9023C195.012 34.5023 195.699 35.339 196.186 36.4123C196.679 37.4857 196.926 38.7323 196.926 40.1523C196.926 41.619 196.686 42.909 196.206 44.0223C195.726 45.129 195.042 45.9957 194.156 46.6223C193.276 47.2423 192.232 47.5523 191.026 47.5523ZM191.026 45.4623C191.732 45.4623 192.349 45.2723 192.876 44.8923C193.409 44.5123 193.822 43.929 194.116 43.1423C194.416 42.3557 194.566 41.359 194.566 40.1523C194.566 38.4323 194.232 37.1523 193.566 36.3123C192.906 35.4723 192.059 35.0523 191.026 35.0523C190.019 35.0523 189.176 35.4723 188.496 36.3123C187.822 37.1457 187.486 38.4257 187.486 40.1523C187.486 41.3523 187.636 42.3457 187.936 43.1323C188.236 43.919 188.649 44.5057 189.176 44.8923C189.709 45.2723 190.326 45.4623 191.026 45.4623ZM205.088 47.5523C203.888 47.5523 202.848 47.2423 201.968 46.6223C201.088 45.9957 200.405 45.129 199.918 44.0223C199.431 42.909 199.188 41.619 199.188 40.1523C199.188 38.7323 199.435 37.4857 199.928 36.4123C200.428 35.3323 201.118 34.4923 201.998 33.8923C202.885 33.2923 203.915 32.9923 205.088 32.9923C206.275 32.9923 207.308 33.2957 208.188 33.9023C209.075 34.5023 209.761 35.339 210.248 36.4123C210.741 37.4857 210.988 38.7323 210.988 40.1523C210.988 41.619 210.748 42.909 210.268 44.0223C209.788 45.129 209.105 45.9957 208.218 46.6223C207.338 47.2423 206.295 47.5523 205.088 47.5523ZM205.088 45.4623C205.795 45.4623 206.411 45.2723 206.938 44.8923C207.471 44.5123 207.885 43.929 208.178 43.1423C208.478 42.3557 208.628 41.359 208.628 40.1523C208.628 38.4323 208.295 37.1523 207.628 36.3123C206.968 35.4723 206.121 35.0523 205.088 35.0523C204.081 35.0523 203.238 35.4723 202.558 36.3123C201.885 37.1457 201.548 38.4257 201.548 40.1523C201.548 41.3523 201.698 42.3457 201.998 43.1323C202.298 43.919 202.711 44.5057 203.238 44.8923C203.771 45.2723 204.388 45.4623 205.088 45.4623Z" fill="#181818"/>
<path d="M77.8435 16.6914C77.9289 16.6914 78.0035 16.7261 78.0675 16.7954L78.6835 17.4594C78.2142 18.0034 77.6435 18.4274 76.9715 18.7314C76.3049 19.0354 75.4969 19.1874 74.5475 19.1874C73.7262 19.1874 72.9795 19.0461 72.3075 18.7634C71.6355 18.4754 71.0622 18.0754 70.5875 17.5634C70.1129 17.0461 69.7449 16.4274 69.4835 15.7074C69.2222 14.9874 69.0915 14.1954 69.0915 13.3314C69.0915 12.4674 69.2275 11.6754 69.4995 10.9554C69.7715 10.2354 70.1529 9.61678 70.6435 9.09945C71.1395 8.58211 71.7315 8.18211 72.4195 7.89945C73.1075 7.61145 73.8675 7.46745 74.6995 7.46745C75.5155 7.46745 76.2355 7.59811 76.8595 7.85945C77.4835 8.12078 78.0329 8.47545 78.5075 8.92345L77.9955 9.63545C77.9635 9.68878 77.9209 9.73411 77.8675 9.77145C77.8195 9.80345 77.7529 9.81945 77.6675 9.81945C77.5715 9.81945 77.4542 9.76878 77.3155 9.66745C77.1769 9.56078 76.9955 9.44345 76.7715 9.31545C76.5475 9.18745 76.2675 9.07278 75.9315 8.97145C75.5955 8.86478 75.1822 8.81145 74.6915 8.81145C74.0995 8.81145 73.5582 8.91545 73.0675 9.12345C72.5769 9.32611 72.1529 9.62211 71.7955 10.0114C71.4435 10.4008 71.1689 10.8754 70.9715 11.4354C70.7742 11.9954 70.6755 12.6274 70.6755 13.3314C70.6755 14.0461 70.7769 14.6834 70.9795 15.2434C71.1875 15.8034 71.4675 16.2781 71.8195 16.6674C72.1769 17.0514 72.5955 17.3448 73.0755 17.5474C73.5609 17.7501 74.0835 17.8514 74.6435 17.8514C74.9849 17.8514 75.2915 17.8328 75.5635 17.7954C75.8409 17.7528 76.0942 17.6888 76.3235 17.6034C76.5582 17.5181 76.7742 17.4114 76.9715 17.2834C77.1742 17.1501 77.3742 16.9928 77.5715 16.8114C77.6622 16.7314 77.7529 16.6914 77.8435 16.6914ZM84.539 15.4114C83.883 15.4328 83.323 15.4861 82.859 15.5714C82.4004 15.6514 82.0244 15.7581 81.731 15.8914C81.443 16.0248 81.2324 16.1821 81.099 16.3634C80.971 16.5448 80.907 16.7474 80.907 16.9714C80.907 17.1848 80.9417 17.3688 81.011 17.5234C81.0804 17.6781 81.1737 17.8061 81.291 17.9074C81.4137 18.0034 81.555 18.0754 81.715 18.1234C81.8804 18.1661 82.0564 18.1874 82.243 18.1874C82.4937 18.1874 82.723 18.1634 82.931 18.1154C83.139 18.0621 83.3337 17.9874 83.515 17.8914C83.7017 17.7954 83.8777 17.6808 84.043 17.5474C84.2137 17.4141 84.379 17.2621 84.539 17.0914V15.4114ZM79.939 12.0994C80.387 11.6674 80.8697 11.3448 81.387 11.1314C81.9044 10.9181 82.4777 10.8114 83.107 10.8114C83.5604 10.8114 83.963 10.8861 84.315 11.0354C84.667 11.1848 84.963 11.3928 85.203 11.6594C85.443 11.9261 85.6244 12.2488 85.747 12.6274C85.8697 13.0061 85.931 13.4221 85.931 13.8754V19.0594H85.299C85.1604 19.0594 85.0537 19.0381 84.979 18.9954C84.9044 18.9474 84.8457 18.8568 84.803 18.7234L84.643 17.9554C84.4297 18.1528 84.2217 18.3288 84.019 18.4834C83.8164 18.6328 83.603 18.7608 83.379 18.8674C83.155 18.9688 82.915 19.0461 82.659 19.0994C82.4084 19.1581 82.1284 19.1874 81.819 19.1874C81.5044 19.1874 81.2084 19.1448 80.931 19.0594C80.6537 18.9688 80.411 18.8354 80.203 18.6594C80.0004 18.4834 79.8377 18.2621 79.715 17.9954C79.5977 17.7234 79.539 17.4034 79.539 17.0354C79.539 16.7154 79.627 16.4088 79.803 16.1154C79.979 15.8168 80.2644 15.5528 80.659 15.3234C81.0537 15.0941 81.5684 14.9074 82.203 14.7634C82.8377 14.6141 83.6164 14.5288 84.539 14.5074V13.8754C84.539 13.2461 84.403 12.7714 84.131 12.4514C83.859 12.1261 83.4617 11.9634 82.939 11.9634C82.587 11.9634 82.291 12.0088 82.051 12.0994C81.8164 12.1848 81.611 12.2834 81.435 12.3954C81.2644 12.5021 81.115 12.6008 80.987 12.6914C80.8644 12.7768 80.7417 12.8194 80.619 12.8194C80.523 12.8194 80.4404 12.7954 80.371 12.7474C80.3017 12.6941 80.243 12.6301 80.195 12.5554L79.939 12.0994ZM89.5722 7.27545V19.0594H88.1482V7.27545H89.5722ZM93.3534 7.27545V19.0594H91.9294V7.27545H93.3534ZM107.36 8.89945H103.648V19.0594H102.104V8.89945H98.384V7.59545H107.36V8.89945ZM110.188 10.8274C110.78 10.8274 111.313 10.9261 111.788 11.1234C112.263 11.3208 112.668 11.6008 113.004 11.9634C113.34 12.3261 113.596 12.7661 113.772 13.2834C113.953 13.7954 114.044 14.3688 114.044 15.0034C114.044 15.6434 113.953 16.2194 113.772 16.7314C113.596 17.2434 113.34 17.6808 113.004 18.0434C112.668 18.4061 112.263 18.6861 111.788 18.8834C111.313 19.0754 110.78 19.1714 110.188 19.1714C109.591 19.1714 109.052 19.0754 108.572 18.8834C108.097 18.6861 107.692 18.4061 107.356 18.0434C107.02 17.6808 106.761 17.2434 106.58 16.7314C106.404 16.2194 106.316 15.6434 106.316 15.0034C106.316 14.3688 106.404 13.7954 106.58 13.2834C106.761 12.7661 107.02 12.3261 107.356 11.9634C107.692 11.6008 108.097 11.3208 108.572 11.1234C109.052 10.9261 109.591 10.8274 110.188 10.8274ZM110.188 18.0594C110.988 18.0594 111.585 17.7928 111.98 17.2594C112.375 16.7208 112.572 15.9714 112.572 15.0114C112.572 14.0461 112.375 13.2941 111.98 12.7554C111.585 12.2168 110.988 11.9474 110.188 11.9474C109.783 11.9474 109.428 12.0168 109.124 12.1554C108.825 12.2941 108.575 12.4941 108.372 12.7554C108.175 13.0168 108.025 13.3394 107.924 13.7234C107.828 14.1021 107.78 14.5314 107.78 15.0114C107.78 15.9714 107.977 16.7208 108.372 17.2594C108.772 17.7928 109.377 18.0594 110.188 18.0594ZM121.13 12.8834C120.864 12.5261 120.576 12.2781 120.266 12.1394C119.957 11.9954 119.61 11.9234 119.226 11.9234C118.474 11.9234 117.896 12.1928 117.49 12.7314C117.085 13.2701 116.882 14.0381 116.882 15.0354C116.882 15.5634 116.928 16.0168 117.018 16.3954C117.109 16.7688 117.242 17.0781 117.418 17.3234C117.594 17.5634 117.81 17.7394 118.066 17.8514C118.322 17.9634 118.613 18.0194 118.938 18.0194C119.408 18.0194 119.816 17.9128 120.162 17.6994C120.514 17.4861 120.837 17.1848 121.13 16.7954V12.8834ZM122.554 7.27545V19.0594H121.706C121.504 19.0594 121.376 18.9608 121.322 18.7634L121.194 17.7794C120.848 18.1954 120.453 18.5314 120.01 18.7874C119.568 19.0434 119.056 19.1714 118.474 19.1714C118.01 19.1714 117.589 19.0834 117.21 18.9074C116.832 18.7261 116.509 18.4621 116.242 18.1154C115.976 17.7688 115.77 17.3368 115.626 16.8194C115.482 16.3021 115.41 15.7074 115.41 15.0354C115.41 14.4381 115.49 13.8834 115.65 13.3714C115.81 12.8541 116.04 12.4061 116.338 12.0274C116.637 11.6488 117.002 11.3528 117.434 11.1394C117.872 10.9208 118.362 10.8114 118.906 10.8114C119.402 10.8114 119.826 10.8968 120.178 11.0674C120.536 11.2328 120.853 11.4648 121.13 11.7634V7.27545H122.554ZM129.195 15.4114C128.539 15.4328 127.979 15.4861 127.515 15.5714C127.057 15.6514 126.681 15.7581 126.387 15.8914C126.099 16.0248 125.889 16.1821 125.755 16.3634C125.627 16.5448 125.563 16.7474 125.563 16.9714C125.563 17.1848 125.598 17.3688 125.667 17.5234C125.737 17.6781 125.83 17.8061 125.947 17.9074C126.07 18.0034 126.211 18.0754 126.371 18.1234C126.537 18.1661 126.713 18.1874 126.899 18.1874C127.15 18.1874 127.379 18.1634 127.587 18.1154C127.795 18.0621 127.99 17.9874 128.171 17.8914C128.358 17.7954 128.534 17.6808 128.699 17.5474C128.87 17.4141 129.035 17.2621 129.195 17.0914V15.4114ZM124.595 12.0994C125.043 11.6674 125.526 11.3448 126.043 11.1314C126.561 10.9181 127.134 10.8114 127.763 10.8114C128.217 10.8114 128.619 10.8861 128.971 11.0354C129.323 11.1848 129.619 11.3928 129.859 11.6594C130.099 11.9261 130.281 12.2488 130.403 12.6274C130.526 13.0061 130.587 13.4221 130.587 13.8754V19.0594H129.955C129.817 19.0594 129.71 19.0381 129.635 18.9954C129.561 18.9474 129.502 18.8568 129.459 18.7234L129.299 17.9554C129.086 18.1528 128.878 18.3288 128.675 18.4834C128.473 18.6328 128.259 18.7608 128.035 18.8674C127.811 18.9688 127.571 19.0461 127.315 19.0994C127.065 19.1581 126.785 19.1874 126.475 19.1874C126.161 19.1874 125.865 19.1448 125.587 19.0594C125.31 18.9688 125.067 18.8354 124.859 18.6594C124.657 18.4834 124.494 18.2621 124.371 17.9954C124.254 17.7234 124.195 17.4034 124.195 17.0354C124.195 16.7154 124.283 16.4088 124.459 16.1154C124.635 15.8168 124.921 15.5528 125.315 15.3234C125.71 15.0941 126.225 14.9074 126.859 14.7634C127.494 14.6141 128.273 14.5288 129.195 14.5074V13.8754C129.195 13.2461 129.059 12.7714 128.787 12.4514C128.515 12.1261 128.118 11.9634 127.595 11.9634C127.243 11.9634 126.947 12.0088 126.707 12.0994C126.473 12.1848 126.267 12.2834 126.091 12.3954C125.921 12.5021 125.771 12.6008 125.643 12.6914C125.521 12.7768 125.398 12.8194 125.275 12.8194C125.179 12.8194 125.097 12.7954 125.027 12.7474C124.958 12.6941 124.899 12.6301 124.851 12.5554L124.595 12.0994ZM139.561 10.9554L135.041 21.4514C134.993 21.5581 134.932 21.6434 134.857 21.7074C134.788 21.7714 134.678 21.8034 134.529 21.8034H133.473L134.953 18.5874L131.609 10.9554H132.841C132.964 10.9554 133.06 10.9874 133.129 11.0514C133.204 11.1101 133.254 11.1768 133.281 11.2514L135.449 16.3554C135.534 16.5794 135.606 16.8141 135.665 17.0594C135.74 16.8088 135.82 16.5714 135.905 16.3474L138.009 11.2514C138.041 11.1661 138.094 11.0968 138.169 11.0434C138.249 10.9848 138.337 10.9554 138.433 10.9554H139.561Z" fill="#595566"/>
</svg>
