<svg width="54" height="53" viewBox="0 0 54 53" fill="none" xmlns="http://www.w3.org/2000/svg">
<g id="Icon">
<circle id="Background" cx="26.8889" cy="26.3889" r="26.3889" fill="#181818"/>
<g id="Icon_2">
<path id="Icon_3" d="M27.6146 32.0885C30.9929 32.0885 33.7316 29.3498 33.7316 25.9715C33.7316 22.5932 30.9929 19.8545 27.6146 19.8545C24.2362 19.8545 21.4976 22.5932 21.4976 25.9715C21.4976 29.3498 24.2362 32.0885 27.6146 32.0885Z" stroke="white" stroke-width="2" stroke-linecap="round" stroke-linejoin="round"/>
<path id="Icon_4" d="M36.2182 20.0055C36.5258 20.4402 36.7952 20.9002 37.0233 21.3803L40.3334 23.1967C40.7467 25.0237 40.751 26.9178 40.3461 28.7466L37.0233 30.563C36.7952 31.0431 36.5258 31.5031 36.2182 31.9378L36.2821 35.6841C34.8792 36.9457 33.2189 37.8962 31.4128 38.4716L28.1539 36.5418C27.6178 36.5796 27.0797 36.5796 26.5436 36.5418L23.2975 38.459C21.4856 37.8941 19.8198 36.9472 18.4155 35.6841L18.4794 31.9505C18.1743 31.5097 17.905 31.0457 17.6742 30.563L14.3642 28.7466C13.9508 26.9196 13.9465 25.0256 14.3514 23.1967L17.6742 21.3803C17.9023 20.9002 18.1717 20.4402 18.4794 20.0055L18.4155 16.2593C19.8183 14.9976 21.4786 14.0471 23.2847 13.4717L26.5436 15.4015C27.0797 15.3637 27.6178 15.3637 28.1539 15.4015L31.4 13.4843C33.2119 14.0492 34.8777 14.9961 36.2821 16.2593L36.2182 20.0055Z" stroke="white" stroke-width="2" stroke-linecap="round" stroke-linejoin="round"/>
</g>
</g>
</svg>
