<svg width="54" height="53" viewBox="0 0 54 53" fill="none" xmlns="http://www.w3.org/2000/svg">
<g id="Icon">
<circle id="Background" cx="26.8889" cy="26.3889" r="26.3889" fill="#181818"/>
<g id="Icon_2">
<path id="Iocn" d="M26.8594 38.841C33.7402 38.841 39.3182 33.263 39.3182 26.3822C39.3182 19.5014 33.7402 13.9233 26.8594 13.9233C19.9785 13.9233 14.4005 19.5014 14.4005 26.3822C14.4005 33.263 19.9785 38.841 26.8594 38.841Z" stroke="white" stroke-width="2" stroke-linecap="round" stroke-linejoin="round"/>
<path id="Iocn_2" d="M16.6846 33.572L18.2031 32.6505C18.3536 32.5577 18.478 32.4278 18.5643 32.2734C18.6506 32.1189 18.696 31.945 18.6962 31.768L18.7222 27.083C18.7242 26.8888 18.7829 26.6994 18.8909 26.5379L21.4605 22.5018C21.5376 22.3825 21.6381 22.2801 21.7559 22.2008C21.8736 22.1214 22.0063 22.0668 22.1457 22.0401C22.2852 22.0134 22.4287 22.0153 22.5674 22.0455C22.7061 22.0758 22.8373 22.1339 22.953 22.2163L25.4967 24.0591C25.7161 24.2121 25.9833 24.2812 26.2494 24.2538L30.3374 23.6958C30.5855 23.6616 30.812 23.5368 30.9734 23.3453L33.8545 20.023C34.0253 19.8205 34.1134 19.5609 34.1011 19.2962L33.9583 16.1426" stroke="white" stroke-width="2" stroke-linecap="round" stroke-linejoin="round"/>
<path id="Iocn_3" d="M34.5293 36.2066L33.1277 34.805C32.998 34.6754 32.8371 34.5815 32.6605 34.5324L29.8702 33.8057C29.6252 33.7386 29.4132 33.584 29.2745 33.3711C29.1358 33.1583 29.0799 32.9019 29.1175 32.6506L29.416 30.5482C29.4456 30.3714 29.5195 30.2049 29.6306 30.0642C29.7418 29.9236 29.8867 29.8133 30.0519 29.7436L33.9972 28.0954C34.1805 28.019 34.3818 27.9967 34.5773 28.0312C34.7728 28.0657 34.9543 28.1555 35.1004 28.29L38.3319 31.249" stroke="white" stroke-width="2" stroke-linecap="round" stroke-linejoin="round"/>
</g>
</g>
</svg>
