<svg width="25" height="24" viewBox="0 0 25 24" fill="none" xmlns="http://www.w3.org/2000/svg">
<g id="Instagram">
<path id="Icon" d="M17.0193 1.92487C18.3446 1.92868 19.6145 2.43698 20.5517 3.33876C21.4888 4.24054 22.017 5.46252 22.021 6.73783V16.3627C22.017 17.638 21.4888 18.86 20.5517 19.7618C19.6145 20.6635 18.3446 21.1718 17.0193 21.1757H7.01714C5.69184 21.1718 4.42195 20.6635 3.48482 19.7618C2.54769 18.86 2.01946 17.638 2.0155 16.3627V6.73783C2.01946 5.46252 2.54769 4.24054 3.48482 3.33876C4.42195 2.43698 5.69184 1.92868 7.01714 1.92487H17.0193ZM17.0193 0H7.01714C3.16597 0 0.0151672 3.03194 0.0151672 6.73783V16.3627C0.0151672 20.0686 3.16597 23.1005 7.01714 23.1005H17.0193C20.8705 23.1005 24.0213 20.0686 24.0213 16.3627V6.73783C24.0213 3.03194 20.8705 0 17.0193 0Z" fill="#181818"/>
<path id="Icon_2" d="M18.5192 6.7384C18.2224 6.7384 17.9323 6.65372 17.6856 6.49508C17.4389 6.33643 17.2466 6.11094 17.133 5.84713C17.0194 5.58331 16.9897 5.29301 17.0476 5.01295C17.1055 4.73288 17.2484 4.47562 17.4582 4.2737C17.6681 4.07179 17.9354 3.93428 18.2265 3.87857C18.5175 3.82286 18.8192 3.85146 19.0933 3.96073C19.3675 4.07001 19.6018 4.25506 19.7667 4.49249C19.9316 4.72992 20.0196 5.00906 20.0196 5.29461C20.02 5.48433 19.9815 5.67226 19.9062 5.84761C19.831 6.02296 19.7205 6.18228 19.581 6.31643C19.4416 6.45058 19.2761 6.55691 19.0938 6.62933C18.9116 6.70174 18.7163 6.7388 18.5192 6.7384ZM12.0177 7.70058C12.809 7.70058 13.5826 7.92639 14.2406 8.34946C14.8986 8.77253 15.4115 9.37386 15.7143 10.0774C16.0172 10.7809 16.0964 11.5551 15.942 12.302C15.7876 13.0489 15.4065 13.7349 14.847 14.2734C14.2874 14.8118 13.5744 15.1785 12.7983 15.3271C12.0221 15.4757 11.2176 15.3994 10.4865 15.108C9.75537 14.8166 9.13046 14.3231 8.6908 13.6899C8.25115 13.0568 8.01648 12.3123 8.01648 11.5508C8.01762 10.53 8.43953 9.55132 9.18966 8.8295C9.93978 8.10767 10.9568 7.70167 12.0177 7.70058ZM12.0177 5.7757C10.8307 5.7757 9.67036 6.11441 8.68341 6.74899C7.69646 7.38357 6.92723 8.28552 6.47299 9.34079C6.01874 10.3961 5.89989 11.5572 6.13146 12.6775C6.36304 13.7978 6.93463 14.8268 7.77396 15.6345C8.61329 16.4421 9.68266 16.9922 10.8468 17.215C12.011 17.4378 13.2177 17.3235 14.3144 16.8864C15.411 16.4493 16.3483 15.709 17.0078 14.7593C17.6672 13.8096 18.0192 12.693 18.0192 11.5508C18.0192 10.0192 17.3869 8.55025 16.2614 7.4672C15.1359 6.38415 13.6094 5.7757 12.0177 5.7757Z" fill="#181818"/>
</g>
</svg>
