<svg width="24" height="19" viewBox="0 0 24 19" fill="none" xmlns="http://www.w3.org/2000/svg">
<g id="Twitter">
<path id="Icon" d="M23.9848 2.4875C23.1162 2.86467 22.1971 3.11316 21.2566 3.22511C22.245 2.64677 22.9882 1.72799 23.347 0.641064C22.4126 1.18708 21.392 1.5702 20.3289 1.77399C19.8812 1.30517 19.3428 0.932205 18.7464 0.677773C18.15 0.423342 17.5081 0.292756 16.8596 0.293953C14.2342 0.293953 12.1095 2.38626 12.1095 4.96548C12.1076 5.32424 12.1488 5.68193 12.232 6.03092C10.3494 5.94272 8.5059 5.46281 6.8195 4.62187C5.1331 3.78093 3.64093 2.59749 2.43845 1.14727C2.01659 1.85794 1.79349 2.66879 1.79246 3.49508C1.79246 5.11493 2.63818 6.54676 3.91521 7.38561C3.15861 7.36767 2.41751 7.16756 1.75483 6.80227V6.86013C1.75483 9.12599 3.39513 11.011 5.56613 11.4401C5.15788 11.5488 4.73718 11.6039 4.31467 11.604C4.01487 11.6045 3.71575 11.5754 3.42167 11.5172C4.0252 13.3733 5.78178 14.7231 7.86255 14.7617C6.17177 16.0638 4.09594 16.7676 1.96132 16.7624C1.58241 16.7619 1.20386 16.7393 0.827576 16.6949C2.99914 18.0806 5.5234 18.8135 8.09991 18.8065C16.8495 18.8065 21.6295 11.6859 21.6295 5.51025C21.6295 5.30777 21.6242 5.10529 21.6146 4.90763C22.5424 4.24815 23.345 3.42861 23.9848 2.4875Z" fill="#181818"/>
</g>
</svg>
